<svg width="105" height="98" viewBox="0 0 105 98" fill="none" xmlns="http://www.w3.org/2000/svg">
<g clip-path="url(#clip0_202_1217)">
<circle cx="53" cy="16" r="15" fill="#F52D56"/>
<path d="M42.0712 98C41.9001 98 41.729 97.993 41.5556 97.9767C39.9829 97.839 38.5579 97.09 37.5477 95.8627C35.4851 93.3613 35.8086 89.6187 38.2696 87.5163L42.8119 83.6407C44.0142 82.614 45.54 82.1263 47.1057 82.2617C48.6784 82.3993 50.1034 83.1483 51.1136 84.3757C53.1762 86.877 52.8527 90.622 50.3917 92.722L45.8494 96.6C44.7783 97.5123 43.4541 98.0023 42.0689 98.0023L42.0712 98ZM46.6018 85.5073C45.9994 85.5073 45.4205 85.722 44.9517 86.121L40.4095 89.9967C39.2938 90.9487 39.1485 92.652 40.0884 93.7883C40.536 94.3297 41.1595 94.661 41.8462 94.7217C42.5283 94.78 43.1939 94.5653 43.7189 94.1173L48.2612 90.2393C49.3768 89.2873 49.5222 87.584 48.5823 86.4477C48.1346 85.9063 47.5112 85.575 46.8244 85.5143C46.7494 85.5073 46.6768 85.505 46.6018 85.505V85.5073Z" fill="black"/>
<path d="M36.6266 91.399C36.4555 91.399 36.2844 91.392 36.111 91.3756C34.5383 91.238 33.1133 90.489 32.1031 89.2616C30.0406 86.7603 30.364 83.0176 32.825 80.9153L39.9642 74.823C41.1666 73.7963 42.6901 73.3063 44.2604 73.444C45.8331 73.5816 47.2581 74.3306 48.2683 75.558C50.3308 78.0593 50.0074 81.8043 47.5464 83.9043L40.4072 89.9966C39.3361 90.909 38.0118 91.399 36.6266 91.399ZM34.6391 87.1896C35.0868 87.731 35.7102 88.0623 36.3969 88.123C37.0766 88.1813 37.7446 87.9666 38.2696 87.5186L45.4089 81.4263C46.5245 80.4743 46.6698 78.771 45.73 77.6346C45.2823 77.0933 44.6588 76.762 43.9721 76.7013C43.2948 76.643 42.6268 76.8576 42.0994 77.3056L34.9602 83.398C33.8445 84.35 33.6992 86.0533 34.6391 87.1896Z" fill="black"/>
<path d="M31.1819 84.8003C31.0108 84.8003 30.8397 84.7933 30.6686 84.777C29.0959 84.6393 27.6709 83.8903 26.6607 82.663C24.5982 80.1617 24.9216 76.4167 27.3826 74.3167L34.5218 68.2243C35.7242 67.1977 37.2477 66.7077 38.818 66.8453C40.3907 66.983 41.8157 67.732 42.8259 68.9593C44.8885 71.4607 44.565 75.2057 42.104 77.3057L34.9648 83.398C33.8937 84.3103 32.5694 84.8003 31.1843 84.8003H31.1819ZM29.1944 80.591C29.642 81.1323 30.2655 81.4637 30.9522 81.5243C31.6343 81.5827 32.2976 81.368 32.8249 80.92L39.9641 74.8277C41.0798 73.8757 41.2251 72.1723 40.2852 71.036C39.8376 70.4947 39.2141 70.1633 38.5274 70.1027C37.8453 70.0443 37.1797 70.259 36.6547 70.707L29.5155 76.7993C28.3998 77.7513 28.2545 79.4547 29.192 80.591H29.1944Z" fill="black"/>
<path d="M25.7348 78.1993C25.5637 78.1993 25.3926 78.1923 25.2191 78.176C23.6465 78.0383 22.2214 77.2893 21.2112 76.062C19.1464 73.5607 19.4721 69.8157 21.9331 67.7157L26.4754 63.84C27.6778 62.8133 29.2036 62.3257 30.7693 62.461C32.342 62.5987 33.767 63.3477 34.7772 64.575C36.8397 67.0763 36.5163 70.819 34.0553 72.9213L29.513 76.797C28.4419 77.7093 27.1176 78.1993 25.7324 78.1993H25.7348ZM30.2654 65.7067C29.663 65.7067 29.0841 65.9213 28.6153 66.3227L24.073 70.1983C22.9574 71.1503 22.8121 72.8537 23.7519 73.99C24.1996 74.5313 24.823 74.8627 25.5098 74.9233C26.1895 74.984 26.8575 74.767 27.3825 74.319L31.9248 70.4433C33.0404 69.4913 33.1857 67.788 32.2459 66.6517C31.7982 66.1103 31.1747 65.779 30.488 65.7183C30.413 65.7113 30.3404 65.709 30.2654 65.709V65.7067Z" fill="black"/>
<path d="M43.9205 60.2303C43.7869 60.2303 43.6533 60.228 43.5173 60.221C41.2204 60.1136 39.104 59.1056 37.5594 57.379C35.7922 55.405 35.9117 52.3506 37.8078 50.5213L47.6893 39.0973C48.8847 37.716 50.6097 36.8713 52.4238 36.7826L61.9842 36.3136C63.4889 36.2413 64.9842 36.575 66.3132 37.2866L71.725 40.173C73.2438 40.9266 73.6282 41.027 74.7556 41.321C75.1352 41.4213 75.6087 41.545 76.2157 41.7176C77.0454 41.9533 78.9697 41.9533 80.7533 41.5473C81.637 41.3443 82.5159 41.895 82.7198 42.7746C82.9214 43.6543 82.3706 44.5293 81.4869 44.7323C79.2885 45.234 76.8087 45.2853 75.3134 44.8606C74.7415 44.6973 74.3079 44.5853 73.9235 44.485C72.6133 44.142 72.011 43.9693 70.2414 43.0896C70.2273 43.0826 70.2133 43.0756 70.1992 43.0686L64.7663 40.1706C63.96 39.7413 63.0576 39.536 62.1482 39.5826L52.5879 40.0516C51.6691 40.096 50.7902 40.5276 50.1784 41.2346L40.2454 52.7193C40.2056 52.766 40.1634 52.808 40.1188 52.85C39.4508 53.4683 39.4016 54.5276 40.0134 55.209C40.9673 56.273 42.2681 56.896 43.6767 56.9613C45.083 57.0266 46.426 56.532 47.469 55.566L52.7472 50.7033C53.0426 50.4303 53.2418 50.0593 53.3098 49.6556L53.5512 48.2066C53.6988 47.3176 54.5449 46.7133 55.4379 46.8626C56.3309 47.0096 56.9356 47.852 56.788 48.741L56.5465 50.19C56.3614 51.3053 55.8036 52.339 54.9762 53.102L49.7003 57.9623C48.1089 59.4346 46.0721 60.235 43.9252 60.235L43.9205 60.2303Z" fill="black"/>
<path d="M93.5059 72.982C92.8051 72.982 92.1067 72.8303 91.4527 72.5247C90.2457 71.9647 89.3316 70.9613 88.8792 69.699L79.5321 43.582C78.6134 41.0177 79.9306 38.1687 82.4666 37.2283L89.0386 34.797C90.2691 34.342 91.6004 34.3957 92.7887 34.9487C93.9958 35.5087 94.9098 36.512 95.3622 37.7743L104.709 63.8913C105.628 66.4557 104.311 69.3046 101.775 70.245L95.2052 72.6763C94.652 72.8817 94.0801 72.982 93.5082 72.982H93.5059ZM90.7332 37.758C90.548 37.758 90.3605 37.7907 90.1824 37.8583L83.6104 40.2897C82.7479 40.6093 82.3049 41.594 82.6236 42.4853L91.9707 68.6023C92.1254 69.034 92.4348 69.3747 92.8403 69.5637C93.227 69.7433 93.6606 69.762 94.0614 69.6127L100.631 67.1813C101.494 66.8617 101.937 65.877 101.618 64.9857L92.2707 38.8687C92.116 38.437 91.8066 38.0963 91.4012 37.9073C91.1879 37.8093 90.9605 37.758 90.7332 37.758Z" fill="black"/>
<path d="M82.0845 75.789C81.5337 75.789 80.997 75.5137 80.6876 75.0143C80.2118 74.2467 80.4509 73.241 81.222 72.7673L89.5237 67.6667C90.2948 67.193 91.305 67.431 91.7808 68.1987C92.2566 68.9663 92.0175 69.972 91.2464 70.4457L82.9447 75.5463C82.6751 75.712 82.3775 75.789 82.0845 75.789Z" fill="black"/>
<path d="M11.4939 71.1573C10.922 71.1573 10.3501 71.0546 9.79701 70.8516L3.22733 68.4203C0.691339 67.4823 -0.625879 64.631 0.292892 62.0666L9.63998 35.9496C10.0923 34.6873 11.0064 33.684 12.2135 33.124C13.4041 32.571 14.7354 32.5196 15.9636 32.9723L22.5332 35.4036C25.0692 36.3416 26.3864 39.193 25.4677 41.7573L16.1206 67.8743C15.6682 69.1366 14.7565 70.14 13.5471 70.7C12.8932 71.0033 12.1947 71.1573 11.4939 71.1573ZM10.9408 67.788C11.3416 67.935 11.7752 67.9186 12.1619 67.739C12.5674 67.55 12.8768 67.2093 13.0315 66.7776L22.3785 40.6606C22.6973 39.7693 22.2543 38.7846 21.3918 38.465L14.8221 36.0336C14.4213 35.8866 13.9901 35.903 13.601 36.0826C13.1955 36.2716 12.8861 36.6123 12.7315 37.044L3.38437 63.161C3.06561 64.0523 3.50859 65.037 4.37111 65.3566L10.9408 67.788Z" fill="black"/>
<path d="M31.9976 44.2563C27.4131 44.2563 23.5834 42.9403 23.3396 42.854C22.4841 42.553 22.0365 41.622 22.3388 40.7703C22.6388 39.921 23.574 39.473 24.4295 39.7716C24.5092 39.7996 32.4312 42.5016 38.2415 39.7483C39.0595 39.361 40.0392 39.7063 40.4283 40.5206C40.8174 41.335 40.4705 42.3103 39.6525 42.6976C37.1798 43.8713 34.4797 44.2563 32 44.2563H31.9976Z" fill="black"/>
<path d="M77.9149 80.8873C76.532 80.8873 75.189 80.3857 74.1296 79.471L68.2912 74.4963C67.6021 73.9107 67.5224 72.8793 68.1107 72.1933C68.699 71.5073 69.735 71.428 70.4241 72.0137L76.2695 76.993C76.7383 77.399 77.3195 77.6183 77.9125 77.6183C78.6696 77.6183 79.3938 77.2683 79.9024 76.657C80.8423 75.53 80.6946 73.8313 79.5719 72.8747L59.359 55.643C58.6699 55.0573 58.5902 54.026 59.1808 53.34C59.7691 52.654 60.8051 52.5747 61.4942 53.1627L81.7071 70.3943C84.1822 72.5083 84.5033 76.2533 82.4267 78.743C81.2923 80.1033 79.6469 80.885 77.9102 80.885L77.9149 80.8873Z" fill="black"/>
<path d="M71.1671 86.3776C69.7819 86.3776 68.4576 85.89 67.3865 84.9753L61.5457 79.9913C60.8567 79.4033 60.777 78.372 61.3676 77.6883C61.9583 77.0023 62.9919 76.923 63.681 77.511L69.5217 82.495C70.0491 82.9453 70.7124 83.1577 71.3944 83.0993C72.0811 83.0387 72.7069 82.7073 73.1523 82.166C74.0921 81.0273 73.9468 79.3263 72.8312 78.3743L68.2889 74.4986C67.5998 73.9106 67.5201 72.8793 68.1107 72.1956C68.699 71.5096 69.735 71.4303 70.4241 72.0183L74.9664 75.894C77.4274 77.994 77.7508 81.739 75.6882 84.2403C74.6757 85.4653 73.253 86.2166 71.6803 86.3543C71.5092 86.3683 71.3358 86.3776 71.1671 86.3776Z" fill="black"/>
<path d="M64.4217 91.8703C63.0365 91.8703 61.7123 91.3827 60.6411 90.468L54.8004 85.484C54.1113 84.896 54.0316 83.8647 54.6223 83.181C55.2129 82.495 56.2465 82.4157 56.9356 83.0037L62.7763 87.9877C63.3037 88.438 63.967 88.6503 64.649 88.592C65.3358 88.5313 65.9616 88.2 66.4069 87.6587C67.3468 86.52 67.2014 84.819 66.0858 83.867L61.5435 79.9913C60.8544 79.4033 60.7747 78.372 61.3654 77.6883C61.956 77.0023 62.9896 76.923 63.6787 77.511L68.221 81.3867C70.682 83.4867 71.0054 87.2317 68.9429 89.733C67.9304 90.958 66.5077 91.7093 64.935 91.847C64.7639 91.861 64.5904 91.8703 64.4217 91.8703Z" fill="black"/>
<path d="M57.6856 97.363C56.5161 97.363 55.3864 97.0036 54.4184 96.3223C53.6777 95.802 53.502 94.7823 54.0246 94.045C54.5473 93.3076 55.5715 93.1326 56.3098 93.653C56.7223 93.9423 57.1981 94.0963 57.6856 94.0963C58.4544 94.0963 59.1646 93.758 59.6849 93.142C60.6131 92.0173 60.4677 90.3093 59.3451 89.3526L54.8028 85.4746C54.116 84.8866 54.0387 83.8553 54.627 83.1716C55.2176 82.488 56.2536 82.411 56.9403 82.9966L61.4779 86.8723C63.9459 88.9793 64.2694 92.729 62.2022 95.2326C61.049 96.593 59.4083 97.363 57.681 97.363H57.6856Z" fill="black"/>
<path d="M21.8652 72.1C21.6402 72.1 21.4129 72.0533 21.1949 71.9553L13.9432 68.7166C13.1158 68.348 12.7479 67.3796 13.1182 66.5583C13.4885 65.7346 14.4612 65.3683 15.2862 65.737L22.5379 68.9756C23.3653 69.3443 23.7333 70.3126 23.3629 71.134C23.0887 71.7406 22.491 72.1 21.8652 72.1Z" fill="black"/>
<path d="M52.4989 32.6667C43.4518 32.6667 36.0923 25.34 36.0923 16.3333C36.0923 7.32667 43.4542 0 52.4989 0C61.5436 0 68.9055 7.32667 68.9055 16.3333C68.9055 25.34 61.546 32.6667 52.4989 32.6667ZM52.4989 3.26667C45.2612 3.26667 39.3736 9.128 39.3736 16.3333C39.3736 23.5387 45.2612 29.4 52.4989 29.4C59.7366 29.4 65.6242 23.5387 65.6242 16.3333C65.6242 9.128 59.7366 3.26667 52.4989 3.26667Z" fill="black"/>
<path d="M50.8582 22.05C50.4387 22.05 50.0191 21.8913 49.698 21.5717L44.776 16.6717C44.1362 16.0347 44.1362 14.9987 44.776 14.3617C45.4159 13.7247 46.4565 13.7247 47.0964 14.3617L50.8582 18.1067L57.9013 11.095C58.5412 10.458 59.5818 10.458 60.2217 11.095C60.8616 11.732 60.8616 12.768 60.2217 13.405L52.0184 21.5717C51.6973 21.8913 51.2777 22.05 50.8582 22.05Z" fill="black"/>
</g>
<defs>
<clipPath id="clip0_202_1217">
<rect width="105" height="98" fill="white"/>
</clipPath>
</defs>
</svg>
