<svg width="90" height="94" viewBox="0 0 90 94" fill="none" xmlns="http://www.w3.org/2000/svg">
<path d="M34 22.5001L38.5 26.5001L39.5 27.0001L42.5 28.0001H45H47.5L50 28.5001L51.5 29.0001L52.5 30.5001L53 32.0001V35.0001L51 39.0001L49 42.5001L47.5 46.0001L46 49.5001L44 54.5001L41 57.5001L38.5 58.0001L36.5 57.5001L35 56.0001L34.5 54.0001V51.5001V47.5001L33.5 45.0001L32 42.0001L30 38.5001L26.5 33.5001L25.5 29.5001L26 26.0001L27.5 23.0001L31 21.5001L34 22.5001Z" fill="#F52D56" stroke="black"/>
<path d="M77.0467 24.4824C76.5152 24.4824 76.017 24.1771 75.8269 23.6872C74.6848 20.7429 73.0657 17.9813 71.0145 15.4798C68.9844 13.0035 66.5719 10.8304 63.844 9.02158C58.1812 5.26605 51.4952 3.28091 44.508 3.28091C37.5207 3.28091 30.8369 5.26565 25.1745 9.01998C22.447 10.8284 20.0346 13.0011 18.0045 15.4766C15.9537 17.9777 14.3342 20.7385 13.1917 23.682C12.9493 24.3065 12.2065 24.6307 11.5328 24.4059C10.8591 24.1811 10.5096 23.4925 10.752 22.8679C11.9839 19.6937 13.7296 16.7174 15.9403 14.0215C18.1277 11.3541 20.7272 9.01317 23.666 7.06449C26.6428 5.09057 29.9096 3.55815 33.3759 2.50969C36.9599 1.42638 40.705 0.876709 44.5084 0.876709C48.3118 0.876709 52.0582 1.42638 55.6417 2.51049C59.1085 3.55895 62.3753 5.09177 65.3525 7.06649C68.2917 9.01598 70.8909 11.3573 73.0786 14.0255C75.2893 16.7222 77.035 19.6993 78.2665 22.8739C78.509 23.4985 78.159 24.1872 77.4853 24.4115C77.3405 24.46 77.1923 24.4828 77.0467 24.4828V24.4824Z" fill="black"/>
<path d="M44.5083 67.3818C43.1385 67.3818 41.7584 67.3093 40.4063 67.1667C39.695 67.0914 39.1838 66.496 39.2651 65.8366C39.3463 65.1772 39.9884 64.7032 40.6997 64.7785C41.955 64.9111 43.2366 64.9784 44.5083 64.9784C45.78 64.9784 47.0716 64.9107 48.3316 64.7769C49.0429 64.7016 49.6854 65.1751 49.7666 65.8346C49.8479 66.494 49.3371 67.0898 48.6259 67.1651C47.2682 67.3089 45.8828 67.3818 44.5079 67.3818H44.5083Z" fill="black"/>
<path d="M46.3181 19.9068C45.7209 19.9068 45.1112 19.7449 44.4553 19.4124C43.4346 18.8952 42.436 18.0242 41.4698 17.1825C40.6955 16.5074 39.8944 15.8091 39.225 15.4333C38.1875 14.8512 37.0373 14.4349 35.8191 13.9942C34.7203 13.5968 33.5838 13.1854 32.4979 12.6321C31.1653 11.9534 30.0332 11.0524 29.2234 10.0272C28.2395 8.7808 27.7936 7.40703 27.934 6.05489C28.0027 5.39425 28.6357 4.91028 29.3487 4.97358C30.0613 5.03728 30.5833 5.62421 30.515 6.28526C30.3262 8.10373 32.138 9.70586 33.7467 10.5256C34.6844 11.0031 35.6934 11.3685 36.762 11.7547C38.029 12.213 39.3391 12.687 40.5676 13.3765C41.4711 13.8833 42.3734 14.6701 43.2462 15.4309C44.0932 16.1693 44.9691 16.9333 45.6989 17.3031C46.319 17.6172 46.4512 17.4978 46.5912 17.3708C46.9533 17.0431 46.7999 16.2214 46.5432 15.0964C46.3851 14.4037 46.2218 13.6874 46.2248 12.9758C46.2274 12.3913 46.2308 11.6638 46.5826 10.9458C46.9741 10.1462 47.6793 9.55162 48.6787 9.17903C49.422 8.90219 50.2214 8.7772 50.9948 8.65661C51.42 8.5901 51.8219 8.5276 52.1801 8.44427C53.9604 8.03082 55.4339 6.57291 55.764 4.89907C55.8928 4.24603 56.5682 3.81335 57.2721 3.93274C57.9764 4.05213 58.4431 4.67792 58.3143 5.33095C58.0633 6.60616 57.4035 7.80125 56.4066 8.78721C55.4097 9.77317 54.1661 10.4611 52.8101 10.776C52.353 10.8821 51.8811 10.9558 51.4252 11.0268C50.0943 11.2343 49.2024 11.4098 48.9436 11.939C48.8213 12.1886 48.8196 12.5936 48.8179 12.9858C48.8157 13.4406 48.944 14.0031 49.0802 14.5988C49.4068 16.0311 49.8139 17.8135 48.403 19.0907C47.8257 19.6135 47.121 19.8956 46.3661 19.9064C46.3505 19.9064 46.3345 19.9064 46.319 19.9064L46.3181 19.9068Z" fill="black"/>
<path d="M69.3915 42.8995C68.9715 42.8995 68.5597 42.7108 68.3099 42.3619C67.9344 41.8375 67.5572 41.303 67.1882 40.7738C66.5841 39.9068 65.7566 38.7201 65.5449 37.3311C65.2943 35.6861 65.9385 34.1589 66.5072 32.812C67.0166 31.6049 67.498 30.4643 67.2928 29.4298C67.0599 28.2532 66.0154 27.3489 64.806 26.3017C63.7499 25.387 62.6579 24.4416 61.9648 23.1675C61.3227 21.9869 61.0985 20.6039 61.3167 19.1676C61.5133 17.8744 62.0526 16.6 62.877 15.4814C64.44 13.36 66.7461 11.9646 68.5804 10.9859C69.201 10.655 69.9934 10.8529 70.3504 11.4282C70.7073 12.0035 70.4938 12.7383 69.8733 13.0696C68.278 13.9209 66.2842 15.1184 65.0177 16.8375C63.7624 18.5414 63.4725 20.6011 64.2797 22.0854C64.7645 22.9772 65.6443 23.7388 66.5755 24.5453C67.9254 25.714 69.455 27.0389 69.8426 28.996C70.181 30.7035 69.5116 32.2892 68.9214 33.6882C68.4249 34.864 67.9565 35.975 68.112 36.9954C68.2339 37.7955 68.7516 38.5891 69.3656 39.4697C69.729 39.9905 70.1006 40.517 70.4705 41.0334C70.8663 41.5867 70.7034 42.3322 70.1071 42.6992C69.8867 42.835 69.6378 42.8999 69.3915 42.8999V42.8995Z" fill="black"/>
<path d="M38.5025 58.1833C38.3426 58.1833 38.1836 58.1777 38.0259 58.1661C36.8557 58.0815 35.8062 57.6949 34.9912 57.0483C32.7097 55.2378 32.7062 52.2219 32.7036 49.7984C32.7032 49.2892 32.7027 48.8085 32.6807 48.3802C32.5489 45.8073 31.0603 43.5265 29.547 41.4112C29.2225 40.9573 28.8825 40.4953 28.5536 40.049C27.2361 38.2594 25.8737 36.4093 24.9321 34.338C23.501 31.191 23.3925 28.0857 24.627 25.5934C25.3348 24.1647 26.6247 22.9027 28.1669 22.1307C29.8396 21.293 31.6765 21.075 33.3384 21.5169C35.2781 22.0326 36.6315 23.2577 37.9408 24.4428C38.8746 25.2877 39.7565 26.0858 40.7836 26.5609C42.2282 27.2292 43.9687 27.27 45.8112 27.3137C46.8146 27.3373 47.8521 27.3618 48.8827 27.4908C51.019 27.7584 52.6023 28.4815 53.5883 29.6402C54.5273 30.7439 54.9158 32.2671 54.7118 34.0443C54.4037 36.7286 53.0184 39.0619 51.6788 41.3182C51.2018 42.1215 50.7088 42.952 50.2866 43.7673C49.638 45.0205 49.0901 46.3718 48.5607 47.6787C47.6836 49.8437 46.7761 52.0829 45.3411 54.1085C44.1005 55.86 42.7281 57.0251 41.1449 57.6705C40.3221 58.0058 39.3996 58.1833 38.5025 58.1833ZM31.6047 23.6976C30.8797 23.6976 30.1226 23.8831 29.3984 24.2457C28.341 24.7753 27.4604 25.6322 26.9825 26.5966C26.4454 27.6807 25.7756 30.0068 27.3208 33.4041C28.1617 35.2531 29.3919 36.9245 30.6947 38.6937C31.0283 39.1468 31.3731 39.6151 31.7076 40.0823C33.3462 42.3723 35.1079 45.0822 35.2708 48.266C35.2954 48.75 35.2963 49.258 35.2967 49.7956C35.2989 51.8273 35.3014 54.1297 36.6773 55.2214C37.4827 55.8604 38.891 55.9626 40.1013 55.469C41.2114 55.0163 42.2165 54.1397 43.1736 52.788C44.4501 50.9855 45.2676 48.9679 46.1331 46.8322C46.6824 45.4764 47.2506 44.0746 47.9489 42.7257C48.4022 41.8503 48.9129 40.9897 49.4068 40.158C50.6785 38.0158 51.8802 35.9922 52.133 33.7891C52.2242 32.9939 52.1974 31.8869 51.5522 31.1281C50.8609 30.3156 49.53 29.9967 48.5352 29.8721C47.6447 29.7608 46.7217 29.7391 45.7442 29.7159C43.6995 29.6678 41.5856 29.6177 39.6251 28.7111C38.2346 28.0681 37.1643 27.099 36.1289 26.1619C35.0003 25.1403 33.9338 24.1751 32.6228 23.8266C32.2957 23.7397 31.9539 23.6964 31.6043 23.6964L31.6047 23.6976Z" fill="black"/>
<path d="M37.5837 93.0228C36.9372 93.0228 36.3777 92.5749 36.2982 91.9651L34.9737 81.8038C34.8782 81.0695 34.9106 80.2966 35.0727 79.4413C35.5554 76.8997 35.3769 74.4366 34.5416 72.1197C33.8278 70.1394 32.6127 68.2051 30.9313 66.3718C27.8137 62.9725 23.8033 60.6228 21.1497 59.0679C19.4247 58.0571 18.646 57.5876 18.2627 57.0475C18.1733 56.9213 18.1102 56.7807 18.0769 56.6328L16.7789 50.8826C16.5032 49.6614 15.7764 48.5557 14.7315 47.7688C13.6867 46.982 12.3709 46.5489 11.0253 46.5489C10.8551 46.5489 10.7488 46.6342 10.7008 46.6851C10.6529 46.736 10.5751 46.8446 10.5967 47.0008L12.084 57.7254C12.1894 58.4854 12.4807 59.2277 12.9271 59.8732L19.5474 69.4435C19.9337 70.0024 19.7587 70.7456 19.1559 71.1041C18.5531 71.4627 17.7516 71.3 17.3648 70.7411L10.7445 61.1708C10.0924 60.2277 9.66636 59.1424 9.51209 58.0319L8.02477 47.3077C7.91372 46.5084 8.17947 45.7032 8.75374 45.0978C9.32801 44.4925 10.1559 44.1455 11.0249 44.1455C12.9642 44.1455 14.8607 44.7697 16.3658 45.9035C17.8708 47.0373 18.9187 48.6306 19.3158 50.3902L20.5382 55.8055C20.9116 56.0848 21.7996 56.6052 22.5342 57.0355C23.9044 57.8384 25.6099 58.8375 27.4364 60.1172C29.6246 61.6504 31.4136 63.1868 32.9061 64.8142C37.0716 69.3562 38.6596 74.4174 37.626 79.858C37.5085 80.4765 37.483 81.0186 37.5474 81.515L38.8718 91.6762C38.9578 92.3353 38.4509 92.9338 37.7405 93.0135C37.6878 93.0196 37.6351 93.0224 37.5832 93.0224L37.5837 93.0228Z" fill="black"/>
<path d="M21.3688 93.0228C20.7487 93.0228 20.2008 92.6089 20.0928 92.0232L19.0566 86.4059C18.8691 85.3895 18.3661 84.4564 17.6025 83.7072L6.56516 72.8769C4.25207 70.6073 2.50937 67.9732 1.38459 65.0477C0.259809 62.1211 -0.183103 59.0675 0.0683848 55.971L1.06699 43.6744L1.72293 29.2039C1.79121 27.6975 3.11865 26.5172 4.74511 26.5172C6.86634 26.5172 8.84972 27.2929 10.3301 28.7011C11.8105 30.1093 12.5961 31.9679 12.5417 33.9338L12.2491 45.3754C12.2323 46.0389 11.6381 46.5645 10.9226 46.5485C10.207 46.5329 9.64048 45.982 9.65734 45.3186L9.94987 33.8745C9.98617 32.5596 9.46202 31.3192 8.47335 30.3789C7.48512 29.4391 6.16113 28.921 4.74511 28.921C4.51263 28.921 4.32294 29.0897 4.31343 29.3048L3.65663 43.795C3.65619 43.8082 3.65533 43.8214 3.65403 43.8346L2.6537 56.1509C2.42943 58.9104 2.82438 61.6319 3.82688 64.2405C4.8298 66.8498 6.38497 69.1999 8.44959 71.2259L19.487 82.0562C20.6031 83.1512 21.3377 84.5153 21.6121 86.0005L22.6483 91.6177C22.7688 92.272 22.2948 92.8934 21.5892 93.0051C21.5153 93.0167 21.4418 93.0224 21.3692 93.0224L21.3688 93.0228Z" fill="black"/>
<path d="M51.4328 93.0228C51.381 93.0228 51.3287 93.02 51.2755 93.014C50.5647 92.9342 50.0583 92.3357 50.1443 91.6766L51.4687 81.5154C51.5335 81.019 51.5076 80.4769 51.3901 79.8584C50.3564 74.4182 51.9445 69.3566 56.11 64.8146C59.4839 61.136 63.8646 58.5691 66.4819 57.0355C67.2165 56.6052 68.1045 56.0848 68.4778 55.8051L69.7003 50.3898C70.0974 48.6302 71.1453 47.0365 72.6503 45.9031C74.1553 44.7693 76.0523 44.1451 77.9916 44.1451C78.861 44.1451 79.6889 44.4921 80.2628 45.0974C80.837 45.7024 81.1024 46.508 80.9917 47.3073L79.5044 58.0315C79.3506 59.142 78.9245 60.2273 78.2725 61.17L71.6521 70.7407C71.2654 71.2996 70.4638 71.4619 69.861 71.1037C69.2582 70.7452 69.0832 70.002 69.4695 69.4431L76.0899 59.8728C76.5363 59.2278 76.8275 58.485 76.9329 57.7254L78.4203 47.0008C78.4419 46.8446 78.3645 46.736 78.3161 46.6851C78.2677 46.6342 78.1614 46.5489 77.9916 46.5489C76.646 46.5489 75.3298 46.982 74.2854 47.7688C73.241 48.5557 72.5137 49.6614 72.2381 50.8826L70.94 56.6328C70.9067 56.7807 70.8436 56.9213 70.7542 57.0475C70.3709 57.5876 69.5923 58.0571 67.8673 59.0679C65.2132 60.6228 61.2033 62.9725 58.0852 66.3718C56.4034 68.2055 55.1887 70.1394 54.4749 72.1197C53.6396 74.4366 53.4607 76.8997 53.9438 79.4413C54.1063 80.2963 54.1387 81.0691 54.0428 81.8038L52.7184 91.9651C52.6389 92.5753 52.0793 93.0228 51.4328 93.0228Z" fill="black"/>
<path d="M67.6477 93.0228C67.5751 93.0228 67.5017 93.0172 67.4278 93.0055C66.7222 92.8938 66.2477 92.2724 66.3687 91.6181L67.4049 86.0009C67.6788 84.5153 68.4139 83.1516 69.53 82.0562L80.5674 71.2259C82.632 69.2003 84.1872 66.8498 85.1901 64.2405C86.1926 61.6323 86.5871 58.9104 86.3633 56.1509L85.3629 43.8346C85.3616 43.8214 85.3612 43.8082 85.3604 43.795L84.7035 29.3048C84.6936 29.0897 84.5043 28.921 84.2719 28.921C82.8558 28.921 81.5319 29.4387 80.5436 30.3789C79.5554 31.3192 79.0308 32.5596 79.0671 33.8721L79.3596 45.3186C79.3765 45.982 78.81 46.5329 78.0944 46.5485C77.3801 46.5649 76.7847 46.0389 76.7678 45.3754L76.4753 33.9314C76.4209 31.9679 77.2064 30.1093 78.6868 28.7011C80.1673 27.2929 82.1506 26.5172 84.2719 26.5172C85.8983 26.5172 87.2258 27.6975 87.294 29.2039L87.95 43.674L88.949 55.9706C89.2005 59.0671 88.7576 62.1207 87.6328 65.0473C86.5085 67.9728 84.7653 70.6069 82.4523 72.8765L71.4149 83.7068C70.6513 84.456 70.1484 85.3895 69.9608 86.4055L68.9246 92.0228C68.8166 92.6085 68.2682 93.0224 67.6486 93.0224L67.6477 93.0228Z" fill="black"/>
</svg>
