<svg width="96" height="96" viewBox="0 0 96 96" fill="none" xmlns="http://www.w3.org/2000/svg">
<g clip-path="url(#clip0_202_1237)">
<path d="M16.5002 96C16.0202 96 15.5402 95.76 15.2552 95.325C14.7902 94.635 14.9852 93.705 15.6752 93.24L18.9602 91.065L5.55016 69.615L2.34016 71.745C1.65016 72.195 0.720156 72.015 0.255156 71.325C-0.209844 70.635 -0.0148444 69.705 0.675156 69.24L3.88516 67.11C4.56016 66.66 5.38516 66.51 6.18016 66.675C6.97516 66.84 7.66516 67.32 8.08516 68.01L21.4952 89.46C22.3652 90.84 21.9752 92.64 20.6102 93.555L17.3252 95.73C17.0702 95.895 16.7852 95.985 16.5002 95.985V96Z" fill="black"/>
<path d="M8.20523 72.54C7.72523 72.54 7.24523 72.3 6.96023 71.865C6.49523 71.175 6.69023 70.245 7.38023 69.78L23.9102 58.755C25.6352 57.6 27.6602 56.985 29.7302 56.985H54.0002C58.1402 56.985 61.5002 60.345 61.5002 64.485C61.5002 68.625 58.1402 71.985 54.0002 71.985H39.0002C38.1752 71.985 37.5002 71.31 37.5002 70.485C37.5002 69.66 38.1752 68.985 39.0002 68.985H54.0002C56.4752 68.985 58.5002 66.96 58.5002 64.485C58.5002 62.01 56.4752 59.985 54.0002 59.985H29.7302C28.2452 59.985 26.8052 60.42 25.5752 61.245L9.04523 72.27C8.79023 72.435 8.50523 72.525 8.22023 72.525L8.20523 72.54Z" fill="black"/>
<path d="M19.6802 90.915C19.1852 90.915 18.7202 90.675 18.4202 90.24C17.9702 89.55 18.1502 88.62 18.8552 88.155L24.8252 84.225C26.5502 83.1 28.5452 82.5 30.6002 82.5H53.9552C55.7702 82.5 57.5552 82.14 59.2202 81.435L85.7102 70.2C86.8202 69.735 87.6902 68.865 88.1552 67.755C88.6202 66.645 88.6202 65.415 88.1552 64.32C87.7052 63.21 86.8352 62.355 85.7102 61.89C84.6002 61.425 83.3702 61.425 82.2752 61.89L56.4752 71.58C55.7102 71.865 54.8402 71.475 54.5402 70.71C54.2552 69.93 54.6452 69.075 55.4102 68.775L81.1652 59.1C82.9652 58.35 85.0052 58.35 86.8502 59.13C88.6952 59.91 90.1502 61.335 90.9152 63.18C91.6802 65.025 91.6802 67.065 90.9152 68.925C90.1502 70.785 88.7102 72.225 86.8652 72.99L60.3902 84.21C58.3352 85.08 56.1752 85.515 53.9552 85.515H30.6002C29.1302 85.515 27.7052 85.935 26.4752 86.745L20.5052 90.675C20.2502 90.84 19.9652 90.915 19.6802 90.915Z" fill="black"/>
<path d="M38 15.5C34.4 11.5 31.8333 4.83333 31 2L5 25C11 39 22.5 47 28.5 51C33.3 54.2 38.8333 57.3333 41 58.5H53C55 58.5 56.8333 59.1667 57.5 59.5L60 62.5C61.6 61.3 65.6667 57.6667 67.5 56L74 49.5C74 47.1 68.6667 38.1667 66 34C64.4 31.2 60.6667 29.1667 59 28.5H37.5L34.5 27.5C31.7 25.9 31.6667 22.8333 32 21.5C32.8 17.9 36.3333 16 38 15.5Z" fill="#F52D56" stroke="black" stroke-width="3"/>
<path d="M67.5001 57.435C67.0801 57.435 66.6451 57.255 66.3601 56.91C65.8201 56.28 65.9101 55.335 66.5401 54.795L72.4951 49.755C71.5801 46.86 68.2051 37.515 61.0501 31.56C60.4201 31.035 60.3301 30.09 60.8551 29.445C61.3801 28.815 62.3251 28.725 62.9701 29.25C72.2401 36.975 75.5251 49.365 75.6601 49.89C75.8101 50.445 75.6151 51.045 75.1801 51.405L68.4751 57.075C68.1901 57.315 67.8451 57.435 67.5001 57.435Z" fill="black"/>
<path d="M57.3453 54C56.9103 54 56.4753 53.82 56.1903 53.445C55.6653 52.8 55.7553 51.855 56.4003 51.33L59.6853 48.645C59.4153 47.4 59.1153 45.255 59.7153 43.305L54.7353 38.595C54.1353 38.025 54.1053 37.08 54.6753 36.48C55.2453 35.88 56.1903 35.85 56.7903 36.42L62.5053 41.835C62.9853 42.3 63.1203 43.02 62.8053 43.62C61.9803 45.195 62.5203 47.88 62.8053 48.765C62.9853 49.35 62.8053 49.98 62.3253 50.37L58.3053 53.67C58.0203 53.895 57.6903 54.015 57.3603 54.015L57.3453 54Z" fill="black"/>
<path d="M21.9152 38.1C21.6752 38.1 21.4502 38.04 21.2252 37.935C18.4952 36.51 14.9102 31.635 14.5202 31.095C14.0852 30.495 14.1602 29.655 14.6852 29.13C17.1452 26.745 16.3352 23.88 16.2902 23.76C16.1252 23.22 16.2902 22.635 16.6802 22.245L23.0702 16.05C23.6702 15.48 24.6152 15.495 25.1852 16.08C25.7552 16.68 25.7402 17.625 25.1552 18.195L19.3502 23.82C19.5452 25.2 19.5752 27.825 17.6552 30.285C19.1102 32.145 21.2552 34.575 22.5902 35.265C23.3252 35.64 23.6102 36.555 23.2202 37.29C22.9502 37.8 22.4252 38.1 21.8852 38.1H21.9152Z" fill="black"/>
<path d="M36.5402 47.865C36.2102 47.865 35.8802 47.85 35.5502 47.82C33.2102 47.595 31.1852 46.545 29.8502 44.85C28.2002 42.78 27.5402 39.765 28.0802 36.78C28.7702 32.97 31.3202 29.565 35.2352 27.225C35.9402 26.805 36.8702 27.03 37.2902 27.735C37.7102 28.44 37.4852 29.37 36.7802 29.79C33.6152 31.695 31.5752 34.365 31.0352 37.32C30.6452 39.45 31.0802 41.58 32.2052 42.975C33.0452 44.04 34.3052 44.685 35.8502 44.835C38.2502 45.06 41.0402 44.055 43.3052 42.12C46.7552 39.165 47.8202 33 46.6652 30.69C46.2902 29.955 46.5902 29.055 47.3402 28.68C48.0752 28.305 48.9752 28.605 49.3502 29.355C51.1652 33 49.6352 40.665 45.2552 44.415C42.6302 46.65 39.5102 47.895 36.5552 47.895L36.5402 47.865Z" fill="black"/>
<path d="M29.8502 53.34C29.6102 53.34 29.3852 53.28 29.1602 53.175C10.1552 43.275 3.3752 25.635 3.0902 24.885C2.8652 24.3 3.0302 23.64 3.5102 23.235L29.6852 0.375002C30.0752 0.0300021 30.6302 -0.0899979 31.1252 0.0750021C31.6202 0.240002 32.0102 0.645002 32.1302 1.155C33.4502 6.585 36.1202 11.13 40.5002 15.435C41.0852 16.02 41.1002 16.965 40.5152 17.55C39.9302 18.135 38.9852 18.15 38.3852 17.565C34.2752 13.53 31.4702 9.135 29.8652 4.185L6.2852 24.78C7.9502 28.515 15.0002 42.435 30.5252 50.505C31.2602 50.895 31.5452 51.795 31.1552 52.53C30.8852 53.04 30.3602 53.34 29.8202 53.34H29.8502Z" fill="black"/>
<path d="M34.5 10.5C34.035 10.5 33.585 10.29 33.285 9.885C32.79 9.21 32.94 8.28 33.615 7.785L39.495 3.51C41.295 2.19 43.44 1.5 45.675 1.5H59.25C59.25 1.5 59.37 1.5 59.43 1.5L84.84 4.485H90C90.825 4.485 91.5 5.16 91.5 5.985C91.5 6.81 90.825 7.485 90 7.485H84.75C84.75 7.485 84.63 7.485 84.57 7.485L59.16 4.5H45.675C44.085 4.5 42.555 4.995 41.265 5.94L35.385 10.215C35.115 10.41 34.815 10.5 34.5 10.5Z" fill="black"/>
<path d="M71.295 34.68C65.265 34.68 60.225 31.17 58.725 30H37.5C33.36 30 30 26.64 30 22.5C30 18.36 33.36 15 37.5 15H57C57.825 15 58.5 15.675 58.5 16.5C58.5 17.325 57.825 18 57 18H37.5C35.025 18 33 20.025 33 22.5C33 24.975 35.025 27 37.5 27H59.25C59.61 27 59.955 27.135 60.225 27.36C60.285 27.42 66.495 32.64 73.26 31.515C81.345 30.165 83.55 27.585 83.58 27.57C83.865 27.225 84.315 27 84.765 27H90.015C90.84 27 91.515 27.675 91.515 28.5C91.515 29.325 90.84 30 90.015 30H85.395C84.21 31.08 81.015 33.27 73.755 34.485C72.93 34.62 72.105 34.68 71.295 34.68Z" fill="black"/>
<path d="M94.5 34.5H91.5C89.85 34.5 88.5 33.15 88.5 31.5V3C88.5 1.35 89.85 0 91.5 0H94.5C95.325 0 96 0.675 96 1.5C96 2.325 95.325 3 94.5 3H91.5V31.5H94.5C95.325 31.5 96 32.175 96 33C96 33.825 95.325 34.5 94.5 34.5Z" fill="black"/>
</g>
<defs>
<clipPath id="clip0_202_1237">
<rect width="96" height="96" fill="white"/>
</clipPath>
</defs>
</svg>
