<svg width="95" height="96" viewBox="0 0 95 96" fill="none" xmlns="http://www.w3.org/2000/svg">
<g clip-path="url(#clip0_73_30)">
<path d="M87.5 32L80.5 12L73 33V71.5L87.5 70V32Z" fill="#F52D56" stroke="black"/>
<path fill-rule="evenodd" clip-rule="evenodd" d="M92.4721 75.3952C92.1444 76.2863 91.6528 76.8311 91.0092 77.0101L59.7144 85.7229C55.6026 86.8669 52.4154 87.6297 48.7367 87.0537L46.4038 86.688C44.6834 86.4194 43.2634 85.8513 41.6171 85.1898C41.1139 84.9874 40.5911 84.7773 40.045 84.5749L32.1569 81.6058C31.599 81.3957 30.9827 81.3023 30.3117 81.3023C27.0894 81.3023 22.7045 83.5009 18.4406 85.6373C17.3795 86.1704 16.3535 86.6841 15.3977 87.1355V65.9003L32.5782 59.9309C34.9267 59.1176 37.201 59.1332 39.5378 59.9815L56.5623 66.1843C57.7053 66.6007 58.5051 67.3868 58.9381 68.523C59.3711 69.6593 59.297 70.7762 58.7196 71.8463L58.4933 72.2626C57.6585 73.8114 55.9966 74.613 54.2606 74.3056L38.859 71.5933C38.2192 71.4805 37.6107 71.9046 37.5014 72.5428C37.3883 73.181 37.8135 73.7881 38.4533 73.9009L53.8588 76.6132C56.3906 77.0568 58.821 76.0178 60.2254 73.9359L89.5072 71.5428C90.7049 71.4455 91.7504 72.0136 92.3004 73.0643L92.316 73.0993C92.7061 73.8503 92.7569 74.5975 92.4682 75.3952H92.4721ZM41.5001 44.7157L40.3844 57.8023L44.5898 59.3355L44.0007 44.7157H41.5001ZM46.2789 38.0225V39.8359C46.2789 40.5091 46.041 41.0617 45.5494 41.5286L44.66 42.3731H40.8915L40.0021 41.5286C39.5144 41.0656 39.2764 40.5091 39.2764 39.8359V38.0225H46.2789ZM56.691 51.9108L55.7158 63.3864L57.3698 63.9896C58.1188 64.262 58.782 64.6472 59.3516 65.1337C59.3672 65.1181 59.3906 65.0986 59.4062 65.0792C59.7885 64.6823 59.9641 64.2231 59.9407 63.6705L59.453 51.9147H56.6871L56.691 51.9108ZM55.8484 46.7703L53.3829 46.3734C54.0227 41.0344 55.0135 37.003 59.4101 33.0532V49.5721H56.8042L56.8315 47.9455C56.8432 47.3657 56.4219 46.8637 55.8445 46.7703H55.8484ZM25.6693 32.6447V59.8531L31.8058 57.7206C33.9241 56.9851 35.9956 56.8023 38.0827 57.1719L39.2062 44.0036L38.387 43.2253C37.4312 42.3225 36.928 41.1473 36.928 39.8359V30.5861C36.928 29.9402 37.4546 29.4148 38.1022 29.4148C38.7498 29.4148 39.2764 29.9402 39.2764 30.5861V35.6799H41.6054V30.5861C41.6054 29.9402 42.1282 29.4148 42.7796 29.4148C43.4311 29.4148 43.9539 29.9402 43.9539 30.5861V35.6799H46.2828V30.5861C46.2828 29.9402 46.8056 29.4148 47.4571 29.4148C48.1086 29.4148 48.6313 29.9402 48.6313 30.5861V39.8359C48.6313 41.1512 48.1281 42.3225 47.1723 43.2253L46.3297 44.023L46.9851 60.1994L53.4414 62.5498L54.4518 50.6772L54.483 48.9145L51.9122 48.502C51.2958 48.4008 50.8667 47.8365 50.933 47.2178C51.6508 40.6803 52.7158 35.2752 59.1994 30.1736C59.6793 29.7962 60.323 29.7261 60.873 29.9907C61.427 30.2592 61.7703 30.804 61.7703 31.415V50.7084L62.3008 63.5655C62.3476 64.7523 61.938 65.8341 61.1149 66.6941C61.0213 66.7914 60.9237 66.8809 60.8223 66.9704C60.9432 67.2 61.0525 67.4412 61.1461 67.6903C61.6298 68.955 61.704 70.2469 61.3841 71.4883L71.8391 70.6361V32.454C71.8391 32.3295 71.8625 32.2049 71.9015 32.0843L78.8533 11.2733H32.8201L25.6811 32.6447H25.6693ZM28.6576 5.63857C28.6576 3.82131 30.14 2.34259 31.9619 2.34259H80.4644C82.2863 2.34259 83.7687 3.82131 83.7687 5.63857C83.7687 7.45584 82.2863 8.93456 80.4644 8.93456H31.9619C30.14 8.93456 28.6576 7.45584 28.6576 5.63857ZM80.1836 67.6553L77.8312 70.1496L82.2004 69.7916L80.1836 67.6553ZM86.1952 69.4648V32.633L80.4254 13.9427L74.1797 32.6485V70.4493L74.3436 70.4376L79.0132 65.4878V32.4618C79.0132 31.8158 79.5399 31.2905 80.1875 31.2905C80.835 31.2905 81.3617 31.8158 81.3617 32.4618V65.4878L85.1965 69.5504L86.1952 69.4687V69.4648ZM13.057 65.0403V92.3265C13.057 93.062 12.4602 93.6574 11.7268 93.6574H3.68265C2.94534 93.6574 2.34847 93.062 2.34847 92.3265V59.1954C2.34847 58.4639 2.94534 57.8646 3.68265 57.8646H11.7229C12.4563 57.8646 13.0531 58.46 13.0531 59.1954V65.0364L13.057 65.0403ZM94.3992 72.0214L94.3836 71.9864C93.4005 70.0991 91.4578 69.0328 89.3161 69.2079L88.5397 69.2702V32.454C88.5397 32.3372 88.5202 32.2205 88.489 32.1076L81.9898 11.0631C84.3695 10.3977 86.1172 8.21855 86.1172 5.63468C86.1172 2.52548 83.5814 -0.00390625 80.4644 -0.00390625H31.9619C28.8449 -0.00390625 26.3091 2.52548 26.3091 5.63468C26.3091 8.20688 28.0451 10.3783 30.4092 11.0554L23.3833 32.0843C23.3443 32.2049 23.3248 32.3295 23.3248 32.454V60.6703L15.4055 63.4215V59.1993C15.4055 57.1758 13.7553 55.5259 11.7268 55.5259H3.68265C1.65017 55.5259 0 57.1719 0 59.1993V92.3304C0 94.3539 1.65017 96.0039 3.68265 96.0039H11.7229C13.7514 96.0039 15.4016 94.3578 15.4016 92.3304V89.7193C16.6656 89.1551 18.0466 88.4624 19.4978 87.7347C23.7539 85.5984 29.0516 82.9445 31.3299 83.8006L39.2179 86.7697C39.7407 86.9642 40.2517 87.1705 40.7433 87.3689C42.4481 88.0499 44.0553 88.6959 46.0371 89.0072L48.3699 89.373C52.5129 90.0228 55.9459 89.2096 60.3425 87.9838L91.6411 79.271C93.0338 78.8819 94.0832 77.8234 94.6762 76.2007C95.1872 74.7959 95.0936 73.3522 94.4031 72.0253L94.3992 72.0214Z" fill="black"/>
</g>
<defs>
<clipPath id="clip0_73_30">
<rect width="95" height="96" fill="white"/>
</clipPath>
</defs>
</svg>
