<svg width="109" height="114" viewBox="0 0 109 114" fill="none" xmlns="http://www.w3.org/2000/svg">
<g clip-path="url(#clip0_138_199)">
<path d="M36 62V64V64.5H73.5V64L73 62L71.5 59.5L69 57.5L67 57L64 56.5H62.5L60.5 54L59 53.5L56 52H53L51 52.5L48.5 53.5L46.5 55.5L45.5 56.5H43.5L41.5 57L39 58L37 60L36 62Z" fill="#F52D56" stroke="black"/>
<path d="M1.57326 95.9708L0 94.2894L28.1575 67.8918C30.9024 65.3198 34.4429 63.8432 38.1854 63.6973V63.6845H71.3262C74.969 63.6845 77.9313 66.648 77.9313 70.2922C77.9313 73.9365 74.969 76.9 71.3262 76.9H51.0503V74.5967H71.3262C73.6976 74.5967 75.629 72.6671 75.629 70.2922C75.629 67.9173 73.7002 65.9877 71.3262 65.9877H38.7917C35.415 65.9877 32.1968 67.2596 29.7333 69.5706L1.57326 95.9708Z" fill="black"/>
<path d="M19.6593 114L18.0861 112.319L35.9522 95.569C39.2599 92.4673 43.578 90.7603 48.111 90.7603H67.6271C69.6557 90.7603 71.6485 90.0745 73.2474 88.8256L105.022 59.9789L105.055 59.9533C105.956 59.2495 106.529 58.231 106.67 57.0845C106.81 55.938 106.498 54.8119 105.795 53.9111C105.091 53.0103 104.073 52.437 102.927 52.2963C101.781 52.1555 100.655 52.4677 99.7549 53.1715L81.592 67.2776L80.1799 65.458L98.3402 51.3545C99.7216 50.2745 101.453 49.796 103.206 50.011C104.961 50.2259 106.524 51.1063 107.608 52.4933C108.69 53.8778 109.169 55.6078 108.954 57.366C108.742 59.1062 107.872 60.6596 106.508 61.7421L74.7337 90.5889L74.703 90.6145C72.6948 92.196 70.1827 93.0661 67.6271 93.0661H48.111C44.1638 93.0661 40.4059 94.553 37.528 97.2529L19.6619 114.003L19.6593 114Z" fill="black"/>
<path d="M69.7018 34.8096C65.7494 34.8096 62.7206 33.6145 62.5262 33.5351L61.6487 33.1794L61.8278 32.2479C61.8943 31.9049 63.5136 23.8385 70.1955 19.9307C74.4216 17.4585 79.6555 17.2384 85.7541 19.2781L86.8107 19.6313L86.4909 20.701C84.6465 26.866 81.4488 31.0783 76.9899 33.2229C74.4983 34.4206 71.953 34.807 69.7043 34.807L69.7018 34.8096ZM64.3399 31.713C66.3864 32.3118 71.4004 33.3662 76.0102 31.1398C79.5941 29.4098 82.2572 26.0419 83.9379 21.1232C78.9776 19.6748 74.7541 19.9409 71.3723 21.9115C66.8597 24.5423 64.9615 29.594 64.3399 31.713Z" fill="black"/>
<path d="M46.1362 32.706C43.0971 32.706 38.1036 32.2018 32.7238 29.5812C28.3852 27.4674 24.5991 24.3478 21.4654 20.3069C17.664 15.401 14.8117 9.10546 12.9877 1.59178L12.6679 0.27638L14.0161 0.171455C25.364 -0.714012 34.3303 1.85282 40.6668 7.80285C50.4466 16.9851 50.3571 30.7738 50.3494 31.3573L50.3366 32.2991L49.4106 32.4731C49.4106 32.4731 49.3031 32.4936 49.0934 32.5243C48.8145 32.5652 47.7503 32.7085 46.1362 32.7085V32.706ZM15.5612 2.37744C18.8382 14.7817 24.947 23.232 33.7291 27.5109C40.1194 30.6228 45.9929 30.4897 48.0164 30.3234C47.8373 27.0707 46.6682 16.5833 39.0757 9.4663C33.4836 4.22259 25.5738 1.84002 15.5586 2.37744H15.5612Z" fill="black"/>
<path d="M53.1966 52.1248C53.1915 52.0097 52.6108 40.473 48.2364 31.6081C42.9052 20.788 34.5017 13.044 23.2663 8.59364L24.1131 6.45163C35.7322 11.053 44.788 19.3984 50.3008 30.5896C54.8901 39.8946 55.4734 51.5285 55.4964 52.0199L53.1966 52.1248Z" fill="black"/>
<path d="M74.7132 65.5578H72.4108C72.4108 57.7805 65.5832 57.5553 64.8029 57.5553C64.2913 57.5553 63.7694 57.6116 63.2578 57.7268L62.4955 57.8957L62.058 57.2482C60.3185 54.6763 57.4278 53.1408 54.3299 53.1408H54.248C51.1859 53.1664 48.3233 54.7019 46.5992 57.2482L46.1617 57.8957L45.3968 57.7268C44.8878 57.6142 44.3685 57.5553 43.8543 57.5553C39.4594 57.5553 36.7375 61.2507 36.7375 64.6749H34.4352C34.4352 59.4773 38.6612 55.2521 43.8543 55.2521C44.2815 55.2521 44.7112 55.2828 45.1385 55.3417C47.3154 52.5368 50.6641 50.8657 54.2378 50.8376H54.3299C57.9394 50.8376 61.3213 52.5087 63.5187 55.3417C63.9459 55.2828 64.3757 55.2521 64.8029 55.2521C65.2071 55.2521 74.7132 55.3698 74.7132 65.5578Z" fill="black"/>
<path d="M53.1992 52.1786C53.1838 52.0173 52.8487 48.1965 53.8566 43.7027C55.2201 37.6247 58.4101 33.2562 63.0839 31.0681L64.0585 33.1538C54.3171 37.7117 55.4759 51.8254 55.4887 51.9687L53.1966 52.1786H53.1992Z" fill="black"/>
</g>
<defs>
<clipPath id="clip0_138_199">
<rect width="109" height="114" fill="white"/>
</clipPath>
</defs>
</svg>
