<svg width="106" height="96" viewBox="0 0 106 96" fill="none" xmlns="http://www.w3.org/2000/svg">
<g clip-path="url(#clip0_73_46)">
<path d="M16.5 21.5L13 16L12.5 15.5L8.5 21.5L2 23L7 28L5.5 35.5H6.5L13 32.5L19 35.5L18 28L23 22.5L16.5 21.5Z" fill="#F52D56"/>
<path d="M40.5 8.5L33.5 9.5L38.5 15.5L37.5 22L44.5 19.5L50.5 22L50 15L54.5 9.5L48.5 8.5L44 2L40.5 8.5Z" fill="#F52D56"/>
<path d="M72 22L65.5 23L69.5 28L70 29.5V36L76.5 32.5L82.5 35L82 28L86 22L79.5 21L75 15L72 22Z" fill="#F52D56"/>
<path d="M16.5 21.5L13 16L12.5 15.5L8.5 21.5L2 23L7 28L5.5 35.5H6.5L13 32.5L19 35.5L18 28L23 22.5L16.5 21.5Z" stroke="black"/>
<path d="M40.5 8.5L33.5 9.5L38.5 15.5L37.5 22L44.5 19.5L50.5 22L50 15L54.5 9.5L48.5 8.5L44 2L40.5 8.5Z" stroke="black"/>
<path d="M72 22L65.5 23L69.5 28L70 29.5V36L76.5 32.5L82.5 35L82 28L86 22L79.5 21L75 15L72 22Z" stroke="black"/>
<path fill-rule="evenodd" clip-rule="evenodd" d="M100.505 66.3306C99.787 66.3306 99.2113 66.9111 99.2113 67.6248V90.8659C99.2113 91.5797 99.787 92.1602 100.505 92.1602C101.222 92.1602 101.798 91.584 101.798 90.8659V67.6248C101.798 66.9111 101.218 66.3306 100.505 66.3306ZM103.418 66.5413V91.9495C103.418 92.7579 102.816 93.4115 102.077 93.4115H91.5416C90.8026 93.4115 90.1967 92.7579 90.1967 91.9495V66.5413C90.1967 65.7329 90.7983 65.0793 91.5416 65.0793H102.077C102.816 65.0793 103.418 65.7329 103.418 66.5413ZM62.1779 91.6958C63.6173 91.6958 64.7903 90.5262 64.7903 89.0857C64.7903 87.6453 63.7118 86.5574 62.3282 86.4757C62.3153 86.4757 62.3025 86.4757 62.2896 86.4757H56.2183C56.2183 86.4757 56.2097 86.4757 56.2054 86.4757C54.809 86.5187 53.6747 87.6883 53.6747 89.0857C53.6747 90.4832 54.8477 91.6958 56.2871 91.6958H62.1822H62.1779ZM15.2577 87.9377H51.2169C51.3802 87.2325 51.6853 86.5789 52.1063 86.0113C50.3017 85.1943 49.0428 83.3797 49.0428 81.2728C49.0428 79.9828 49.5154 78.8046 50.2931 77.893C49.6486 77.4975 49.0943 76.96 48.6733 76.3322H9.53878C9.74072 79.3163 10.3208 82.2532 11.2747 85.0782C11.8633 86.8154 13.423 87.9377 15.2577 87.9377ZM11.6957 73.7436H47.8182C47.8182 73.649 47.8096 73.5544 47.8096 73.4598C47.8096 70.9057 49.6572 68.7772 52.0849 68.3429C51.5993 67.556 51.3201 66.6316 51.3201 65.6469C51.3201 62.7788 53.6489 60.4483 56.5148 60.4483H63.802C64.1973 60.4483 64.584 60.4913 64.9535 60.5773C65.6582 59.9237 65.6109 58.2166 65.4391 55.6195C65.3231 53.8823 65.1942 51.9129 65.4391 49.9565C59.5311 44.8181 51.9989 41.993 44.1488 41.993C26.4979 41.993 12.091 56.1699 11.7 73.7436H11.6957ZM38.9541 33.6383C38.9541 36.502 41.2829 38.8326 44.1445 38.8326C47.0061 38.8326 49.335 36.5063 49.335 33.6383C49.335 30.7702 47.0061 28.4483 44.1445 28.4483C41.2829 28.4483 38.9541 30.7745 38.9541 33.6383ZM50.3963 73.4598C50.3963 72.0193 51.5693 70.8455 53.0087 70.8455H67.3167C68.7561 70.8455 69.9248 72.0193 69.9248 73.4598C69.9248 74.9003 68.7518 76.0699 67.3167 76.0699H54.2418C54.1903 76.0699 54.1387 76.0699 54.0871 76.0742C54.0614 76.0742 54.0356 76.0699 54.0098 76.0699H53.0087C51.5693 76.0699 50.3963 74.9003 50.3963 73.4598ZM56.4675 68.2612H56.4589C55.0539 68.2311 53.9067 67.0615 53.9067 65.6512C53.9067 64.2408 55.0797 63.0411 56.5148 63.0411H63.802C65.2414 63.0411 66.4144 64.2107 66.4144 65.6512C66.4144 67.0916 65.2586 68.244 63.8407 68.2612H56.4718H56.4675ZM66.0793 83.8828H54.2418C52.8024 83.8828 51.6337 82.7133 51.6337 81.2728C51.6337 79.8323 52.8067 78.6584 54.2418 78.6584H66.0793C67.5187 78.6584 68.6874 79.8323 68.6874 81.2728C68.6874 82.7133 67.5144 83.8828 66.0793 83.8828ZM68.0171 55.4518C68.1804 57.907 68.335 60.2591 67.3081 61.8113C68.3479 62.7659 69.001 64.129 69.001 65.6469C69.001 66.6316 68.7218 67.556 68.2405 68.3429C70.6682 68.7815 72.5115 70.9057 72.5115 73.4598C72.5115 75.3346 71.5146 76.9772 70.028 77.893C70.8057 78.8046 71.2783 79.9828 71.2783 81.2728C71.2783 83.9473 69.2502 86.1532 66.6507 86.437C67.1105 87.2153 67.3726 88.1183 67.3726 89.0814C67.3726 90.0446 67.1148 90.9261 66.6679 91.6915H87.6144V66.7606C87.1719 66.7606 86.7035 66.7606 86.1922 66.7649C84.2415 66.795 82.54 66.0124 81.2811 64.5246C76.2539 58.5864 73.388 51.5904 72.765 43.7345C67.407 46.2413 67.7163 50.9196 68.0171 55.4475V55.4518ZM106 66.5413V91.9495C106 94.1854 104.238 96 102.073 96H91.5373C90.2139 96 89.0452 95.3206 88.332 94.2843H56.2785C53.9153 94.2843 51.913 92.6934 51.2857 90.5262H15.2577C12.2973 90.5262 9.7751 88.7116 8.82552 85.9081C7.78142 82.8164 7.1541 79.6044 6.94786 76.3365H4.98855C4.2753 76.3365 3.69524 75.756 3.69524 75.0422C3.69524 74.3284 4.2753 73.7479 4.98855 73.7479H9.10911C9.46573 56.3719 22.5106 42.0661 39.3279 39.7399C37.5276 38.3166 36.3675 36.1107 36.3675 33.6383C36.3675 29.3513 39.8564 25.8597 44.1445 25.8597C48.4327 25.8597 51.9216 29.3513 51.9216 33.6383C51.9216 36.1107 50.7658 38.3123 48.9655 39.7399C55.2344 40.6084 61.1509 43.154 66.1051 47.1486C66.9687 44.8267 68.6831 42.7068 71.9916 41.2534C72.7091 40.9395 73.504 40.9911 74.1743 41.3953C74.8446 41.7995 75.2614 42.4789 75.3172 43.2615C75.8586 50.7864 78.4538 57.1975 83.249 62.8605C84.0052 63.7549 84.9805 64.2021 86.1578 64.1849C86.9699 64.1763 87.6789 64.172 88.3535 64.1849C89.0667 63.1615 90.2268 62.4907 91.5416 62.4907H102.077C104.243 62.4907 106.004 64.3096 106.004 66.5413H106ZM67.1835 23.7399L71.0162 27.3174C71.317 27.6012 71.4674 28.0097 71.4158 28.4182L70.7756 33.6254L75.3602 31.0841C75.7211 30.882 76.1594 30.8691 76.5332 31.0454L81.2853 33.2599L80.2885 28.1129C80.2112 27.7044 80.3315 27.2873 80.6108 26.982L84.1856 23.1422L78.9823 22.5015C78.5698 22.4499 78.2089 22.2091 78.0113 21.8479L75.4676 17.2599L73.2505 22.0156C73.0743 22.3897 72.7306 22.6606 72.3267 22.738L67.1792 23.7399H67.1835ZM63.5657 23.9033L68.7733 28.7622L67.9054 35.8355C67.8452 36.3171 68.0644 36.7944 68.464 37.0653C68.6831 37.2115 68.9323 37.2889 69.1858 37.2889C69.4006 37.2889 69.6155 37.233 69.8131 37.1255L76.0391 33.6727L82.4927 36.6826C82.9353 36.889 83.4509 36.8288 83.8333 36.5278C84.2157 36.2268 84.4005 35.7366 84.3059 35.2636L82.9482 28.2677L87.8035 23.0562C88.1343 22.6993 88.2374 22.1876 88.0742 21.7318C87.9066 21.276 87.4984 20.9535 87.0172 20.889L79.9491 20.0204L76.4945 13.7898C76.2582 13.3642 75.807 13.1105 75.3172 13.1234C74.8317 13.1406 74.3977 13.4286 74.1915 13.8672L71.1795 20.3257L64.193 21.6845C63.7161 21.7791 63.3294 22.1317 63.1962 22.5961C63.063 23.0648 63.2005 23.5679 63.5571 23.899L63.5657 23.9033ZM7.70408 27.154C7.99626 27.4464 8.12945 27.8592 8.065 28.272L7.24863 33.4534L11.9192 31.0712C12.2887 30.882 12.7226 30.882 13.0922 31.0712L17.7627 33.4534L16.942 28.272C16.8776 27.8635 17.0108 27.4464 17.3072 27.154L21.0153 23.4432L15.8378 22.6219C15.4296 22.5574 15.0772 22.2994 14.8882 21.9339L12.5078 17.2599L10.1274 21.9339C9.93837 22.3037 9.58604 22.5574 9.17785 22.6219L4.00031 23.4432L7.70838 27.154H7.70408ZM5.40963 28.5128L4.29678 35.5517C4.21944 36.0333 4.42139 36.5149 4.81239 36.803C5.20339 37.0868 5.72759 37.1298 6.15726 36.9105L12.4992 33.677L18.8455 36.9105C19.0302 37.0051 19.2322 37.0524 19.4341 37.0524C19.7005 37.0524 19.9669 36.9664 20.1946 36.8073C20.5856 36.5192 20.7876 36.0376 20.7102 35.556L19.5974 28.5171L24.6288 23.4776C24.9726 23.1336 25.0929 22.6262 24.9425 22.1661C24.7921 21.7017 24.3968 21.362 23.9156 21.2889L16.8862 20.1709L13.6507 13.8242C13.4316 13.39 12.9847 13.1191 12.4992 13.1191C12.0137 13.1191 11.5668 13.39 11.3477 13.8242L8.11656 20.1709L1.08284 21.2889C0.601606 21.3663 0.206308 21.7017 0.0559228 22.1661C-0.0944623 22.6262 0.0258458 23.1379 0.37388 23.4776L5.40534 28.5171L5.40963 28.5128ZM35.637 10.3284L39.3408 14.0392C39.633 14.3316 39.7662 14.7487 39.706 15.1572L38.8854 20.3386L43.5559 17.9565C43.9254 17.7673 44.3594 17.7673 44.7289 17.9565L49.3994 20.3386L48.5787 15.1572C48.5143 14.7487 48.6475 14.3316 48.9397 14.0392L52.6477 10.3284L47.4702 9.50712C47.062 9.44262 46.7097 9.18463 46.5206 8.81914L44.1402 4.14512L41.7599 8.81914C41.5708 9.18893 41.2185 9.44262 40.8103 9.50712L35.6327 10.3284H35.637ZM32.0192 10.3628C31.6755 10.0188 31.5552 9.51142 31.7012 9.04703C31.8516 8.58694 32.2469 8.24725 32.7282 8.16985L39.7619 7.05187L42.993 0.705187C43.2121 0.270895 43.659 0 44.1445 0C44.6301 0 45.0769 0.275195 45.2961 0.705187L48.5272 7.05187L55.5609 8.16985C56.0421 8.24725 56.4374 8.58694 56.5878 9.04703C56.7382 9.51142 56.6179 10.0188 56.2742 10.3628L51.2427 15.4023L52.3556 22.4413C52.4329 22.9229 52.231 23.4045 51.84 23.6883C51.6122 23.8517 51.3458 23.9377 51.0794 23.9377C50.8775 23.9377 50.6798 23.8904 50.4908 23.7958L44.1488 20.5622L37.8069 23.7958C37.3729 24.0194 36.853 23.9764 36.462 23.6883C36.0667 23.4002 35.8691 22.9229 35.9464 22.4413L37.0592 15.4023L32.0278 10.3628H32.0192ZM44.8105 50.537C44.8105 51.2507 44.2305 51.8312 43.5172 51.8312C33.3555 51.8312 24.3152 58.2897 21.0239 67.9043C20.8391 68.4418 20.3364 68.7815 19.7993 68.7815C19.6618 68.7815 19.5201 68.7557 19.3826 68.7084C18.708 68.4762 18.347 67.7409 18.5791 67.0658C22.227 56.4063 32.2512 49.2427 43.5172 49.2427C44.2305 49.2427 44.8105 49.8189 44.8105 50.537Z" fill="black"/>
</g>
<defs>
<clipPath id="clip0_73_46">
<rect width="106" height="96" fill="white"/>
</clipPath>
</defs>
</svg>
